# xmcd
#
# Track frame offsets:
#	150
#	11528
#	22642
#	38771
#	53568
#	76114
#	88901
#	102721
#	121166
#	138183
#	153629
#	169537
#	190175
#	203129
#	221670
#	237590
#
# Disc length: 3385 seconds
#
# Revision: 0
# Processed by: cddbd v1.5.2PL0 Copyright (c) Steve Scherf et al.
# Submitted via: audiograbber 1.82.02
#
DISCID=c90d3710
DTITLE=Patty Loveless - 16 Biggest Hits
DYEAR=2007
DGENRE=Country
TTITLE0=Timber, I'm Falling In Love  
TTITLE1=Chains
TTITLE2=Blame It On Your Heart  
TTITLE3=You Will  
TTITLE4=How Can I Help You Say Goodbye  
TTITLE5=I Try To Think About Elvis  
TTITLE6=Here I Am  
TTITLE7=You Don't Even Know Who I Am
TTITLE8=Halfway Down
TTITLE9=You Can Feel Bad  
TTITLE10=A Thousand Times A Day
TTITLE11=Lonely Too Long  
TTITLE12=She Drew A Broken Heart
TTITLE13=You Don't Seem To Miss Me - (With George Jones)
TTITLE14=That's The Kind Of Mood I'm In  
TTITLE15=Lovin' All Night  
EXTD=Dream`Masrer\n9/10/2008
EXTT0=
EXTT1=
EXTT2=
EXTT3=
EXTT4=
EXTT5=
EXTT6=
EXTT7=
EXTT8=
EXTT9=
EXTT10=
EXTT11=
EXTT12=
EXTT13=
EXTT14=
EXTT15=
PLAYORDER=
